<svg xmlns="http://www.w3.org/2000/svg" viewBox="0 0 300 400" preserveAspectRatio="xMidYMid slice"><rect width="300" height="400" fill="#2d4f4f"/><rect x="18" y="18" width="264" height="364" fill="none" stroke="#e6c78d" stroke-width="2"/><rect x="28" y="28" width="244" height="344" fill="none" stroke="#e6c78d" stroke-width=".8" opacity=".6"/>
<ellipse cx="150" cy="190" rx="14" ry="60" fill="#e6c78d" opacity=".8" transform="rotate(-72 150 250)"/><ellipse cx="150" cy="190" rx="14" ry="74" fill="#e6c78d" opacity=".8" transform="rotate(-48 150 250)"/><ellipse cx="150" cy="190" rx="14" ry="60" fill="#e6c78d" opacity=".8" transform="rotate(-24 150 250)"/><ellipse cx="150" cy="190" rx="14" ry="74" fill="#e6c78d" opacity=".8" transform="rotate(0 150 250)"/><ellipse cx="150" cy="190" rx="14" ry="60" fill="#e6c78d" opacity=".8" transform="rotate(24 150 250)"/><ellipse cx="150" cy="190" rx="14" ry="74" fill="#e6c78d" opacity=".8" transform="rotate(48 150 250)"/><ellipse cx="150" cy="190" rx="14" ry="60" fill="#e6c78d" opacity=".8" transform="rotate(72 150 250)"/>
<circle cx="150" cy="250" r="9" fill="#2d4f4f" stroke="#e6c78d" stroke-width="2"/><rect x="70" y="320" width="160" height="2" fill="#e6c78d"/><rect x="100" y="332" width="100" height="2" fill="#e6c78d" opacity=".6"/></svg>